<?xml version="1.0" encoding="UTF-8"?>
<svg width="50" height="50" viewBox="0 0 100 100" version="1.1" xmlns="http://www.w3.org/2000/svg" xmlns:xlink="http://www.w3.org/1999/xlink">
    <!-- Generator: Sketch 61.2 (89653) - https://sketch.com -->
    <title>external-link</title>
    <desc>Created with Sketch.</desc>
    <defs>
        <path d="M10.8333333,3.83333333 C11.4776655,3.83333333 12,4.35566779 12,5 C12,5.64433221 11.4776655,6.16666667 10.8333333,6.16666667 L10.8333333,6.16666667 L3.83333333,6.16666667 C3.18900113,6.16666667 2.66666667,6.68900113 2.66666667,7.33333333 L2.66666667,7.33333333 L2.66666667,20.1666667 C2.66666667,20.8109989 3.18900113,21.3333333 3.83333333,21.3333333 L3.83333333,21.3333333 L16.6666667,21.3333333 C17.3109989,21.3333333 17.8333333,20.8109989 17.8333333,20.1666667 L17.8333333,20.1666667 L17.8333333,13.1666667 C17.8333333,12.5223345 18.3556678,12 19,12 C19.6443322,12 20.1666667,12.5223345 20.1666667,13.1666667 L20.1666667,13.1666667 L20.1666667,20.1666667 C20.1666667,22.0996633 18.5996633,23.6666667 16.6666667,23.6666667 L16.6666667,23.6666667 L3.83333333,23.6666667 C1.90033671,23.6666667 0.333333333,22.0996633 0.333333333,20.1666667 L0.333333333,20.1666667 L0.333333333,7.33333333 C0.333333333,5.40033671 1.90033671,3.83333333 3.83333333,3.83333333 L3.83333333,3.83333333 Z M22.5,0.333333333 C22.5561946,0.333333333 22.6123892,0.337368058 22.6681119,0.345437506 C22.738942,0.355611354 22.8072061,0.3720565 22.8728563,0.394183966 C22.8858239,0.398614127 22.8982166,0.40302386 22.9105466,0.40764953 C22.9378353,0.417875148 22.9647308,0.429169571 22.9910921,0.441419704 C23.0061285,0.448347128 23.0213114,0.455790297 23.0363602,0.463583151 C23.0585952,0.475202401 23.0801323,0.487267577 23.1012342,0.499981782 C23.1166,0.509118812 23.1317736,0.518741572 23.1467665,0.528748675 C23.16826,0.543214812 23.1891979,0.558213946 23.2096035,0.573872285 C23.2496716,0.604554889 23.2882343,0.638318474 23.3249579,0.675042089 L23.2427896,0.600305979 C23.2655044,0.619080673 23.2874963,0.638699022 23.3087172,0.659113031 L23.3249579,0.675042089 C23.33102,0.681104149 23.3370014,0.687216323 23.3429021,0.693377278 C23.361083,0.712374228 23.3786713,0.732030318 23.3955865,0.752268455 C23.406349,0.765057192 23.4168358,0.778150654 23.4269994,0.79141232 C23.4468916,0.81751593 23.4657956,0.844482902 23.4835559,0.872251909 C23.4875683,0.878340242 23.4911726,0.88409182 23.4947219,0.889867616 C23.534061,0.954005021 23.56763,1.02262614 23.5943023,1.09459524 C23.5981144,1.10499352 23.6019289,1.11578799 23.6055797,1.12662546 C23.6452773,1.24422177 23.6666667,1.36961301 23.6666667,1.5 L23.6666667,1.5 L23.6666667,8.5 C23.6666667,9.14433221 23.1443322,9.66666667 22.5,9.66666667 C21.8556678,9.66666667 21.3333333,9.14433221 21.3333333,8.5 L21.3333333,8.5 L21.3333333,4.31533333 L10.4916246,15.1582912 C10.0685566,15.5813592 9.40140364,15.6115784 8.94346637,15.2489487 L8.84170876,15.1582912 C8.38609708,14.7026796 8.38609708,13.9639871 8.84170876,13.5083754 L8.84170876,13.5083754 L19.6823333,2.66633333 L15.5,2.66666667 C14.8986233,2.66666667 14.4035201,2.21165532 14.3401792,1.62712119 L14.3333333,1.5 C14.3333333,0.855667792 14.8556678,0.333333333 15.5,0.333333333 L15.5,0.333333333 Z" id="path-1"></path>
    </defs>
    <g id="Web" stroke="none" stroke-width="1" fill="none" fill-rule="evenodd">
        <g id="SVG" transform="translate(-2.000000, -2.000000)">
            <g id="external-link" transform="translate(2.000000, 2.000000)">
                <mask id="mask-2" fill="white">
                    <use xlink:href="#path-1"></use>
                </mask>
                <use id="Combined-Shape" fill="#000000" fill-rule="nonzero" xlink:href="#path-1"></use>
                <g id="_COLORS/white" mask="url(#mask-2)" fill="#FFFFFF">
                    <g transform="translate(-2.000000, -2.000000)" id="Rectangle">
                        <rect x="0" y="0" width="28" height="28"></rect>
                    </g>
                </g>
            </g>
        </g>
    </g>
</svg>