<?xml version="1.0" encoding="utf-8"?>
<!-- Generator: Adobe Illustrator 24.1.2, SVG Export Plug-In . SVG Version: 6.00 Build 0)  -->
<svg version="1.1" id="Layer_1" xmlns="http://www.w3.org/2000/svg" xmlns:xlink="http://www.w3.org/1999/xlink" x="0px" y="0px"
	 viewBox="0 0 2560 1800" style="enable-background:new 0 0 2560 1800;" xml:space="preserve">
<style type="text/css">
	.st0{fill:#F7F7F7;}
</style>
<g>
	<path class="st0" d="M922.99,436.51c66.27,0,120.95,15.24,163.96,45.69c43.01,30.49,74.8,70.35,95.42,119.61
		c20.58,49.3,30.91,104.41,30.91,165.3c0,80.63-17.47,158.16-52.41,232.5c-34.94,74.38-80.63,139.77-137.08,196.21
		c-56.44,56.44-117.84,99.03-184.12,127.67l-185.46-137.08c50.14-19.7,96.3-44.77,138.42-75.26c42.08-30.45,78.83-63.58,110.2-99.45
		c31.33-35.82,55.1-72.57,71.23-110.2l-13.44-8.06c-8.99,7.18-20.62,12.56-34.94,16.13c-14.36,3.61-33.18,5.38-56.44,5.38
		c-32.25,0-64.97-8.06-98.11-24.19c-33.18-16.13-60.94-40.32-83.32-72.57c-22.43-32.25-33.6-73.45-33.6-123.64
		c0-57.33,12.52-104.83,37.63-142.45c25.07-37.63,58.21-66.27,99.45-86.01C832.49,446.38,876.37,436.51,922.99,436.51z
		 M1581.51,436.51c66.27,0,120.95,15.24,163.96,45.69c43.01,30.49,74.8,70.35,95.42,119.61c20.58,49.3,30.91,104.41,30.91,165.3
		c0,80.63-17.47,158.16-52.41,232.5c-34.94,74.38-80.63,139.77-137.08,196.21c-56.44,56.44-117.84,99.03-184.12,127.67
		l-185.46-137.08c50.14-19.7,96.3-44.77,138.42-75.26c42.08-30.45,78.83-63.58,110.2-99.45c31.33-35.82,55.1-72.57,71.23-110.2
		l-13.44-8.06c-8.99,7.18-20.62,12.56-34.94,16.13c-14.36,3.61-33.18,5.38-56.44,5.38c-32.25,0-64.97-8.06-98.11-24.19
		c-33.18-16.13-60.94-40.32-83.32-72.57c-22.43-32.25-33.6-73.45-33.6-123.64c0-57.33,12.52-104.83,37.63-142.45
		c25.07-37.63,58.21-66.27,99.45-86.01C1491,446.38,1534.89,436.51,1581.51,436.51z"/>
</g>
</svg>
