<?xml version="1.0" encoding="utf-8"?>
<!-- Generator: Adobe Illustrator 24.1.2, SVG Export Plug-In . SVG Version: 6.00 Build 0)  -->
<svg version="1.1" id="Layer_1" xmlns="http://www.w3.org/2000/svg" xmlns:xlink="http://www.w3.org/1999/xlink" x="0px" y="0px"
	 viewBox="0 0 2560 1800" style="enable-background:new 0 0 2560 1800;" xml:space="preserve">
<style type="text/css">
	.st0{fill:#E2E2E2;}
</style>
<g>
	<path class="st0" d="M1280,227c90.85,0,178.99,17.79,261.96,52.89c39.88,16.87,78.34,37.74,114.32,62.05
		c35.64,24.08,69.15,51.72,99.6,82.18s58.1,63.97,82.18,99.6c24.31,35.98,45.18,74.44,62.05,114.32
		C1935.21,721.01,1953,809.15,1953,900s-17.79,178.99-52.89,261.96c-16.87,39.88-37.74,78.34-62.05,114.32
		c-24.08,35.64-51.72,69.15-82.18,99.6c-30.45,30.46-63.97,58.1-99.6,82.18c-35.98,24.31-74.44,45.18-114.32,62.05
		c-82.97,35.09-171.11,52.89-261.96,52.89s-178.99-17.79-261.96-52.89c-39.88-16.87-78.34-37.74-114.32-62.05
		c-35.64-24.08-69.15-51.72-99.6-82.18c-30.46-30.45-58.1-63.97-82.18-99.6c-24.31-35.98-45.18-74.44-62.05-114.32
		C624.79,1078.99,607,990.85,607,900s17.79-178.99,52.89-261.96c16.87-39.88,37.74-78.34,62.05-114.32
		c24.08-35.64,51.73-69.15,82.18-99.6c30.45-30.45,63.97-58.1,99.6-82.18c35.98-24.31,74.44-45.18,114.32-62.05
		C1101.01,244.79,1189.15,227,1280,227 M1280,226c-372.24,0-674,301.76-674,674s301.76,674,674,674s674-301.76,674-674
		S1652.24,226,1280,226L1280,226z"/>
</g>
</svg>
